{"title":"Mission Impossible 4 Ghost Protocol {2011} DVDRip ","uid":7151686,"size":1397735782,"categoryP":"video","categoryS":"movies","magnet":"?xt=urn:btih:b0ef9d0cec0592fcff5e043dd956a606b83d1e5a&amp;dn=Mission+Impossible+4+Ghost+Protocol+%7B2011%7D+DVDRip+&amp;tr=udp%3A%2F%2Ftracker.openbittorrent.com%3A80&amp;tr=udp%3A%2F%2Fopen.demonii.com%3A1337&amp;tr=udp%3A%2F%2Ftracker.coppersurfer.tk%3A6969&amp;tr=udp%3A%2F%2Fexodus.desync.com%3A6969","seeders":1,"leechers":0,"uploader":"stumpie1971","files":-1,"time":1333325360,"description":"Screens:\n  &lt;a href=&quot;\nhttp://www.postimg.com/image/64000/photo-63847.jpg&quot; rel=&quot;nofollow&quot; target=&quot;_NEW&quot;&gt;\nhttp://www.postimg.com/image/64000/photo-63847.jpg&lt;/a&gt;  &lt;a href=&quot;\nhttp://www.postimg.com/image/64000/photo-63848.jpg&quot; rel=&quot;nofollow&quot; target=&quot;_NEW&quot;&gt;\nhttp://www.postimg.com/image/64000/photo-63848.jpg&lt;/a&gt;  &lt;a href=&quot;\nhttp://www.postimg.com/image/64000/photo-63849.jpg&quot; rel=&quot;nofollow&quot; target=&quot;_NEW&quot;&gt;\nhttp://www.postimg.com/image/64000/photo-63849.jpg&lt;/a&gt;  &lt;a href=&quot;\nhttp://www.postimg.com/image/64000/photo-63850.jpg&quot; rel=&quot;nofollow&quot; target=&quot;_NEW&quot;&gt;\nhttp://www.postimg.com/image/64000/photo-63850.jpg&lt;/a&gt;\n\nScreenCaps:\n  &lt;a href=&quot;\nhttp://www.postimg.com/image/64000/photo-63851.jpg&quot; rel=&quot;nofollow&quot; target=&quot;_NEW&quot;&gt;\nhttp://www.postimg.com/image/64000/photo-63851.jpg&lt;/a&gt;\n\nMission Impossible 4 Ghost Protocol (2011) DVDRip XviD-MAX\nFormat                           : AVI\nFormat/Info                      : Audio Video Interleave\nFormat profile                   : OpenDML\nFile size                        : 1.30 GiB\nDuration                         : 2h 12mn\nOverall bit rate                 : 1 398 Kbps\nWriting application              : VirtualDubMod 1.5.10.2 (build 2542/release)\nWriting library                  : VirtualDubMod build 2542/release\nOriginal source form             : MAX TORRENTZ\nCopyright                        : SIGISMUNT\n\nVideo\nID                               : 0\nFormat                           : MPEG-4 Visual\nFormat profile                   : AdvancedSimple@L5\nFormat settings, BVOP            : Yes\nFormat settings, QPel            : No\nFormat settings, GMC             : No warppoints\nFormat settings, Matrix          : Default (MPEG)\nCodec ID                         : XVID\nCodec ID/Hint                    : XviD\nDuration                         : 2h 12mn\nBit rate                         : 1 009 Kbps\nWidth                            : 640 pixels\nHeight                           : 272 pixels\nDisplay aspect ratio             : 2.35:1\nFrame rate                       : 23.976 fps\nResolution                       : 24 bits\nColorimetry                      : 4:2:0\nScan type                        : Progressive\nBits/(Pixel*Frame)               : 0.242\nStream size                      : 959 MiB (72%)\nWriting library                  : XviD 64\n\nAudio\nID                               : 1\nFormat                           : AC-3\nFormat/Info                      : Audio Coding 3\nCodec ID                         : 2000\nDuration                         : 2h 12mn\nBit rate mode                    : Constant\nBit rate                         : 384 Kbps\nChannel(s)                       : 6 channels\nChannel positions                : Front: L C R, Surround: L R, LFE\nSampling rate                    : 48.0 KHz\nStream size                      : 365 MiB (27%)\nAlignment                        : Aligned on interleaves\nInterleave, duration             : 64 ms (1.53 video frames)\nInterleave, preload duration     : 192 ms\n\nSource: DVD (perfect a/v/sync quality,sample included,hardcoded english\nsubs for few original foreign parts)\n\n\n\n          ---------------------------------------------------------------\n\n                      !!! ENJOY &amp; SEED 30mb UPLOAD SPEED !!!\n\n          ---------------------------------------------------------------","torrent":{"xt":"urn:btih:b0ef9d0cec0592fcff5e043dd956a606b83d1e5a","amp;dn":"Mission+Impossible+4+Ghost+Protocol+%7B2011%7D+DVDRip+","amp;tr":["udp%3A%2F%2Ftracker.openbittorrent.com%3A80","udp%3A%2F%2Fopen.demonii.com%3A1337","udp%3A%2F%2Ftracker.coppersurfer.tk%3A6969","udp%3A%2F%2Fexodus.desync.com%3A6969"],"infoHash":"b0ef9d0cec0592fcff5e043dd956a606b83d1e5a","infoHashBuffer":{"type":"Buffer","data":[176,239,157,12,236,5,146,252,255,94,4,61,217,86,166,6,184,61,30,90]},"announce":[],"urlList":[]}}